<?xml version="1.0" standalone="no"?><!DOCTYPE svg PUBLIC "-//W3C//DTD SVG 1.1//EN" "http://www.w3.org/Graphics/SVG/1.1/DTD/svg11.dtd"><svg t="1747810377706" class="icon" viewBox="0 0 1176 1024" version="1.1" xmlns="http://www.w3.org/2000/svg" p-id="7162" xmlns:xlink="http://www.w3.org/1999/xlink" width="229.6875" height="200"><path d="M919.197088 0.043849h-675.270843a36.789106 36.789106 0 0 0-36.745258 36.745257v9.208239H71.73218A71.341926 71.341926 0 0 0 0.127161 117.251574v871.581724a32.448079 32.448079 0 0 0 0 7.366591v2.587076a36.613711 36.613711 0 0 0 1.666253 4.779515l1.666253 3.288656 2.192438 3.288657a2.80632 2.80632 0 0 0 0 1.271614l1.841647 1.841648 2.367833 2.587076 3.288657 2.762472 2.937867 1.666253 3.683295 2.192438h3.113262l4.384875 1.447008h2.236287a52.355415 52.355415 0 0 0 5.305699 0h965.812701a36.789106 36.789106 0 0 0 35.649039-27.580867l138.211279-542.014474a71.517321 71.517321 0 0 0-69.368732-88.179848h-55.249433V197.582495a71.298077 71.298077 0 0 0-70.771892-70.377254h-23.064446V36.745258A36.745258 36.745258 0 0 0 919.284786 0z m-36.745257 73.534364v292.602749H280.7592V73.534364z m-675.270844 45.953496v246.649253a70.771892 70.771892 0 0 0-64.326125 55.117886l-68.930244 271.862288V119.444011z m765.116945 833.126365H84.448319l128.652251-512.767353h890.129747z m4.779514-753.540873v166.888366h-21.047403v-165.309811z" p-id="7163"></path></svg>