<?xml version="1.0" standalone="no"?><!DOCTYPE svg PUBLIC "-//W3C//DTD SVG 1.1//EN" "http://www.w3.org/Graphics/SVG/1.1/DTD/svg11.dtd"><svg t="1747810115713" class="icon" viewBox="0 0 1024 1024" version="1.1" xmlns="http://www.w3.org/2000/svg" p-id="4302" xmlns:xlink="http://www.w3.org/1999/xlink" width="200" height="200"><path d="M999.8 975H49.1V24.5C49.1 11.2 37.8 0 24.5 0 11 0 0 11.2 0 24.5v974.4c0 13.9 11 25.1 24.5 25.1H999.8c13.3 0 24.2-11.2 24.2-25.1 0-12.7-11-23.9-24.2-23.9zM840 906.6h115.4c13.3 0 24.2-10.9 24.2-24.2V730.1c0-13.3-10.9-24.5-24.2-24.5H840c-13.3 0-24.2 11.2-24.2 24.5v152.3c0 13.2 10.9 24.2 24.2 24.2zM864.8 754h65.7v103.9h-65.7V754zM626.5 906.6h115.4c13.3 0 24.2-10.9 24.2-24.2v-606c0-13.3-10.9-23.9-24.2-23.9H626.5c-13.6 0-24.2 10.7-24.2 23.9v606c0 13.2 10.7 24.2 24.2 24.2z m24.3-605.7h66.3v557h-66.3v-557zM140.2 906.6h115.4c13.3 0 24.2-10.9 24.2-24.2V141.6c0-13.3-11-24.5-24.2-24.5H140.2c-13.3 0-24.5 11.2-24.5 24.5v740.7c0 13.3 11.2 24.3 24.5 24.3z m24.2-740.5h66.3v691.7h-66.3V166.1z m189.3 740.5h115.1c13.3 0 24.5-10.9 24.5-24.2V577.8c0-13.8-11.3-24.5-24.5-24.5H353.7c-13.3 0-24.5 10.7-24.5 24.5v304.6c-0.1 13.2 11.2 24.2 24.5 24.2z m24.2-304.9h66.9v256.1h-66.9V601.7z" fill="#48697B" p-id="4303"></path></svg>