<?xml version="1.0" standalone="no"?><!DOCTYPE svg PUBLIC "-//W3C//DTD SVG 1.1//EN" "http://www.w3.org/Graphics/SVG/1.1/DTD/svg11.dtd"><svg t="1747967296272" class="icon" viewBox="0 0 1024 1024" version="1.1" xmlns="http://www.w3.org/2000/svg" p-id="4955" xmlns:xlink="http://www.w3.org/1999/xlink" width="200" height="200"><path d="M104.874667 582.826667v370.176h814.250666V582.826667h-232.96L623.701333 682.666667H400.384l-62.634667-99.84H104.789333zM42.666667 582.826667V481.621333L168.789333 85.333333h255.573334v70.997334H212.394667L104.96 494.250667V512h268.544l62.549333 99.84h152.064L650.581333 512h268.544v-17.834667l-107.52-337.834666H628.906667V85.333333h226.304L981.333333 481.621333V1024H42.666667V582.826667z m512-123.733334L588.714667 426.666667 640 475.562667 512 597.333333 384 475.562667 435.285333 426.666667 469.333333 459.093333V0h85.333334v459.093333z" fill="#2c2c2c" p-id="4956"></path></svg>