<?xml version="1.0" standalone="no"?><!DOCTYPE svg PUBLIC "-//W3C//DTD SVG 1.1//EN" "http://www.w3.org/Graphics/SVG/1.1/DTD/svg11.dtd"><svg t="1747967219469" class="icon" viewBox="0 0 1024 1024" version="1.1" xmlns="http://www.w3.org/2000/svg" p-id="3868" xmlns:xlink="http://www.w3.org/1999/xlink" width="200" height="200"><path d="M977.454545 921.6h-9.30909 9.30909z" p-id="3869" fill="#2c2c2c"></path><path d="M400.290909 856.436364h-186.181818V167.563636h428.218182L744.727273 269.963636v121.018182c0 23.272727 18.618182 41.890909 41.890909 41.890909s41.890909-18.618182 41.890909-41.890909v-139.636363c0-9.309091-4.654545-23.272727-13.963636-32.581819L693.527273 93.090909c-9.309091-9.309091-18.618182-13.963636-32.581818-13.963636H172.218182c-23.272727 0-41.890909 18.618182-41.890909 41.890909v772.654545c0 23.272727 18.618182 41.890909 41.890909 41.890909h232.727273c4.654545 0 9.309091 0 9.30909-4.654545 4.654545 0 9.309091-4.654545 13.963637-9.309091 4.654545-4.654545 9.309091-9.309091 9.309091-13.963636 0-4.654545 4.654545-9.309091 4.654545-18.618182 0-13.963636-18.618182-32.581818-41.890909-32.581818z" p-id="3870" fill="#2c2c2c"></path><path d="M442.181818 428.218182H311.854545c-23.272727 0-41.890909 18.618182-41.890909 41.890909s18.618182 41.890909 41.890909 41.890909h130.327273c23.272727 0 41.890909-18.618182 41.890909-41.890909 0-18.618182-18.618182-41.890909-41.890909-41.890909zM311.854545 288.581818c-23.272727 0-41.890909 18.618182-41.890909 41.890909s18.618182 41.890909 41.890909 41.890909h260.654546c23.272727 0 41.890909-18.618182 41.890909-41.890909s-18.618182-41.890909-41.890909-41.890909H311.854545zM442.181818 567.854545H311.854545c-23.272727 0-41.890909 18.618182-41.890909 41.89091s18.618182 41.890909 41.890909 41.890909h130.327273c23.272727 0 41.890909-18.618182 41.890909-41.890909s-18.618182-41.890909-41.890909-41.89091zM986.763636 879.709091c0-4.654545-4.654545-9.309091-9.309091-13.963636l-83.781818-83.781819c23.272727-32.581818 32.581818-69.818182 32.581818-111.709091 0-111.709091-93.090909-204.8-204.8-204.8s-204.8 93.090909-204.8 204.8 93.090909 204.8 204.8 204.8c37.236364 0 74.472727-9.309091 107.054546-32.581818l83.781818 83.781818c9.309091 9.309091 18.618182 13.963636 32.581818 13.963637 9.309091 0 23.272727-4.654545 32.581818-13.963637 4.654545-4.654545 9.309091-9.309091 9.309091-13.963636 0-4.654545 4.654545-9.309091 4.654546-18.618182-4.654545-4.654545-4.654545-9.309091-4.654546-13.963636zM721.454545 791.272727c-69.818182 0-125.672727-55.854545-125.672727-121.018182 0-69.818182 55.854545-121.018182 125.672727-121.018181 69.818182 0 125.672727 55.854545 125.672728 121.018181-4.654545 69.818182-60.509091 121.018182-125.672728 121.018182z" p-id="3871" fill="#2c2c2c"></path></svg>