<?xml version="1.0" standalone="no"?><!DOCTYPE svg PUBLIC "-//W3C//DTD SVG 1.1//EN" "http://www.w3.org/Graphics/SVG/1.1/DTD/svg11.dtd"><svg t="1747966986249" class="icon" viewBox="0 0 1024 1024" version="1.1" xmlns="http://www.w3.org/2000/svg" p-id="2882" id="mx_n_1747966986249" xmlns:xlink="http://www.w3.org/1999/xlink" width="200" height="200"><path d="M768.386711 416.015059a256 256 0 1 0-512 0 192 192 0 1 0 0 384v64a256 256 0 0 1-58.88-505.22353 320.150588 320.150588 0 0 1 629.76 0 256.120471 256.120471 0 0 1-58.88 505.193412v-64a192 192 0 1 0 0-384z m-512 384h128v64h-128v-64z m384 0h128v64h-128v-64z" fill="#2c2c2c" p-id="2883"></path><path d="M539.070946 589.191529V922.202353a32.436706 32.436706 0 0 1-31.984941 32.225882 32.436706 32.436706 0 0 1-32.015059-32.225882V589.191529l-36.080941 36.080942a32.195765 32.195765 0 0 1-54.603294-22.678589 31.593412 31.593412 0 0 1 9.33647-22.588235l90.895059-90.864941a31.352471 31.352471 0 0 1 22.528-9.125647 30.087529 30.087529 0 0 1 22.377412 9.065412l90.895059 90.955294a32.195765 32.195765 0 0 1-22.678589 54.573176 31.623529 31.623529 0 0 1-22.588235-9.33647l-36.080941-36.080942z" fill="#2c2c2c" p-id="2884"></path></svg>